<svg width="29" height="25" viewBox="0 0 29 25" fill="none" xmlns="http://www.w3.org/2000/svg">
<path d="M19.5652 0.916962L24.0547 8.40839H28.8392V11.1022H27.208L26.1499 23.336C26.1208 23.6726 25.9616 23.9863 25.7037 24.2151C25.4459 24.4439 25.1083 24.5709 24.7578 24.5711H4.9657C4.61496 24.5713 4.27699 24.4444 4.01885 24.2156C3.7607 23.9868 3.60125 23.6728 3.57214 23.336L2.51405 11.1022H0.884277V8.40839H5.66736L10.1569 0.916962L12.5778 2.26386L8.89616 8.40839H20.8259L17.1457 2.26386L19.5665 0.916962H19.5652ZM24.4014 11.1022H5.32072L6.25302 21.8773H23.4718L24.4041 11.1022H24.4014ZM16.2595 13.796V19.1835H13.464V13.796H16.2595ZM10.6685 13.796V19.1835H7.87301V13.796H10.6685ZM21.8505 13.796V19.1835H19.055V13.796H21.8505Z" fill="white"/>
</svg>
